<svg xmlns:xlink="http://www.w3.org/1999/xlink" xmlns="http://www.w3.org/2000/svg" width="250" height="40" viewBox="0 0 250 40" fill="none">
<path fill-rule="evenodd" clip-rule="evenodd" d="M218.591 0.24766C218.606 0.358237 218.621 0.468813 218.635 0.579389C218.61 0.112844 218.916 0.0292129 219.41 0.0342408C220.941 0.0757287 222.544 0.0526173 224.177 0.0290569C232.102 -0.0852534 240.76 -0.210133 245.583 6.98111C251.713 15.4242 251.312 28.952 243.379 36.1033C238.471 40.2805 232.013 40.1031 225.744 39.9309C223.53 39.8701 221.339 39.8099 219.248 39.9426C218.751 39.9426 218.503 39.696 218.503 39.203C218.504 26.2328 218.506 13.2637 218.508 0.293464V0.286799V0.28013V0.273449V0.266742V0.260027V0.253306L218.591 0.246531V0.24766ZM225.99 20.0245H225.997C226.108 20.5702 226.053 22.3436 225.99 24.4078C225.868 28.3406 225.715 33.3287 226.613 32.8918C227.125 32.8874 227.641 32.8901 228.158 32.8928H228.158H228.158H228.158H228.158H228.158C231.588 32.9106 235.088 32.9287 238.04 30.8751C242.961 26.7557 243.195 19.1776 240.83 13.5327C238.409 7.81672 232.063 6.91448 226.592 7.14484C226.09 7.15613 225.976 7.30632 225.979 7.78962C225.992 10.9164 225.991 14.0431 225.99 17.1699C225.989 18.1218 225.989 19.0737 225.989 20.0257L225.99 20.0245ZM16.284 22.0975C16.1527 22.6514 16.4223 23.0672 16.6918 23.4828C16.803 23.6543 16.9142 23.8258 16.9971 24.0069C17.7638 25.703 18.6691 27.3302 19.6392 28.9133C21.4722 32.6273 23.3811 36.3186 25.5035 39.861C23.9652 39.9732 22.4291 39.96 20.8914 39.9468C19.798 39.9374 18.7039 39.9281 17.6073 39.9637C17.213 39.9681 17.104 39.7069 17.0066 39.4734L17.0066 39.4733C16.9792 39.4077 16.9527 39.3443 16.9211 39.2896C15.5695 36.9628 14.3551 34.5413 13.1412 32.1209C11.5928 29.0334 10.0453 25.9475 8.21462 23.0618C7.77091 22.9737 7.61779 23.4401 7.70944 23.8455C7.70888 26.5242 7.7086 29.1996 7.70832 31.8752C7.70804 34.5514 7.70776 37.2279 7.70721 39.9084H0.206659L0.204673 27.0355C0.203431 18.4456 0.202189 9.85676 0.199952 1.2659V1.24236C0.199901 0.038322 0.199901 0.0283328 1.40031 0.0350644C3.02552 0.150536 4.76739 0.103881 6.5403 0.0563942C12.0144 -0.0902278 17.7845 -0.244776 21.3302 4.34072C25.6254 10.3368 23.7689 19.9045 16.284 22.0975ZM7.79662 7.1626C7.68228 8.88196 7.69841 10.6466 7.71452 12.4096V12.4096V12.4096V12.4096V12.4096V12.4096C7.72424 13.473 7.73395 14.5357 7.71503 15.5876C8.06709 16.3724 13.0641 15.7536 13.9649 15.4171C16.3098 14.5374 16.8351 11.6331 15.8325 9.57684C14.726 7.07203 11.8416 7.12172 9.36384 7.1644H9.36381C8.81336 7.17389 8.28298 7.18302 7.79662 7.16373V7.1626ZM170.754 23.482C170.485 23.0664 170.215 22.6505 170.346 22.0966H170.345C177.83 19.9037 179.687 10.336 175.392 4.3399C171.846 -0.245596 166.076 -0.0910479 160.602 0.0555741C158.829 0.103061 157.087 0.149716 155.462 0.0342443C154.261 0.0275126 154.261 0.037502 154.261 1.24157V1.26508C154.266 14.147 154.267 27.0256 154.268 39.9076H161.77C161.77 37.2459 161.77 34.5882 161.771 31.9308C161.771 29.2363 161.771 26.5422 161.772 23.8446C161.68 23.4393 161.833 22.9729 162.277 23.061C164.108 25.9466 165.655 29.0324 167.204 32.1197L167.204 32.1201C168.418 34.5405 169.632 36.962 170.984 39.2888C171.015 39.3435 171.042 39.4069 171.069 39.4726C171.166 39.7061 171.275 39.9673 171.67 39.9629C172.766 39.9272 173.86 39.9366 174.954 39.946C176.492 39.9592 178.028 39.9723 179.566 39.8601C177.444 36.3178 175.535 32.6265 173.702 28.9125C172.732 27.3294 171.826 25.7022 171.06 24.0061C170.977 23.825 170.865 23.6535 170.754 23.482ZM161.778 12.4087V12.4081C161.762 10.6453 161.746 8.88093 161.86 7.16178V7.16291C162.347 7.1822 162.877 7.17307 163.427 7.16358C165.905 7.1209 168.79 7.07121 169.896 9.57602C170.899 11.6323 170.373 14.5366 168.028 15.4163C167.128 15.7528 162.131 16.3716 161.779 15.5868C161.797 14.5357 161.788 13.4737 161.778 12.4112V12.4106V12.4099V12.4093V12.4087ZM76.6796 0.030857C77.4997 0.0389759 78.3244 0.0341228 79.151 0.029259C80.7386 0.0199169 82.3328 0.0105358 83.9131 0.0929633C84.4673 0.308429 84.6177 0.932265 84.7659 1.54656C84.8499 1.89486 84.9332 2.24008 85.0888 2.50607C86.1048 4.93838 87.0693 7.38875 87.902 9.8922C91.6897 19.9207 95.4752 29.8983 99.369 39.8839H91.6059C91.0375 38.4277 90.4904 36.9314 89.9439 35.4366L89.9438 35.4363C89.5458 34.3475 89.148 33.2595 88.7424 32.1883C88.6765 32.0167 88.4116 31.8439 88.2183 31.8168C85.4546 31.7843 82.6874 31.7906 79.9201 31.7969H79.92H79.9199H79.9198C77.696 31.802 75.472 31.8071 73.2496 31.792C72.674 31.7909 72.2973 31.8225 72.1141 32.5587C71.8504 33.6194 71.4533 34.6483 71.0577 35.6735L71.0576 35.6736C70.9938 35.8391 70.93 36.0045 70.8668 36.1699C70.7224 36.5002 70.5749 36.8219 70.4286 37.1413L70.4284 37.1416L70.4279 37.1426L70.4277 37.143L70.4277 37.1431C70.0188 38.035 69.6185 38.9081 69.3199 39.8963H61.5746C66.5906 26.5536 71.601 13.3205 76.6796 0.030857ZM80.6428 10.9683L80.4428 10.9311C79.2924 13.7018 78.2319 16.5141 77.1704 19.3288L77.1703 19.3291L77.1702 19.3294L77.1701 19.3297L77.17 19.3301C76.5155 21.0655 75.8607 22.8019 75.1842 24.5301C75.7766 24.7537 85.3526 24.7322 85.8444 24.4409C84.5737 21.6671 83.5314 18.7931 82.4904 15.9223L82.4904 15.9222L82.4904 15.9222L82.4903 15.9221L82.4902 15.9217C81.8886 14.2628 81.2875 12.6051 80.6428 10.9683ZM55.2912 7.10983V0.0974701H55.2901H33.7988V39.9189H55.2811V32.8839C54.1624 32.8839 53.0452 32.8834 51.9287 32.8828C48.5825 32.8811 45.2433 32.8794 41.8928 32.893C41.4346 32.8952 41.2882 32.7755 41.2904 32.3024C41.3917 31.8658 41.3454 30.427 41.2916 28.7515V28.7515V28.7514C41.1879 25.5262 41.0561 21.4242 41.8939 21.9058C42.4384 21.7991 44.2273 21.8555 46.3315 21.9219H46.3315H46.3316C50.4605 22.0522 55.8035 22.2208 55.3415 21.2701C55.3145 20.3019 55.3208 19.34 55.3272 18.3787V18.3786V18.3786C55.335 17.1916 55.3428 16.0053 55.2878 14.8087H41.3619C41.2786 13.4131 41.2901 12.0095 41.3016 10.6049V10.6046C41.3098 9.59885 41.3181 8.59265 41.2915 7.58861C41.2883 7.14368 41.5205 7.14416 41.8283 7.14479L41.8637 7.14483C43.5324 7.13557 45.2018 7.14358 46.8713 7.15159C49.6791 7.16505 52.4869 7.17852 55.2912 7.10983ZM194.633 14.8381H208.582V21.9137H194.634V32.876H208.58V39.8974H187.106V0.0918225H208.581V7.14483H194.633V14.8381ZM107.992 0.0963443V39.8895C111.517 39.9597 115.042 39.952 118.568 39.9442C121.002 39.9389 123.436 39.9336 125.871 39.9539C126.234 39.955 126.347 39.824 126.345 39.4582C126.33 37.4843 126.325 35.5105 126.348 33.5377C126.354 33.0375 126.226 32.8681 125.699 32.8726C123.042 32.8954 117.528 32.887 115.927 32.8845C115.7 32.8842 115.551 32.8839 115.501 32.8839V0.0963443H107.992Z" fill="black" style="fill:black;fill-opacity:1;"/>
</svg>