<svg xmlns:xlink="http://www.w3.org/1999/xlink" xmlns="http://www.w3.org/2000/svg" width="36" height="41" viewBox="0 0 36 41" fill="none">
  <path d="M20.281 18.9957V3.1087C20.281 1.66812 19.1129 0.5 17.6723 0.5C16.2317 0.5 15.0636 1.66812 15.0636 3.1087V18.9928L1.30419 26.9377C0.0578069 27.6595 -0.371179 29.2537 0.350561 30.5C1.0723 31.7464 2.66651 32.1754 3.91288 31.4537L17.6694 23.5116L31.426 31.4537C32.6723 32.1754 34.2694 31.7464 34.9883 30.5C35.71 29.2537 35.281 27.6566 34.0347 26.9377L20.281 18.9957Z" fill="black" style="fill:black;fill-opacity:1;"></path>
  <path d="M17.6712 26.5879C16.2306 26.5879 15.0625 27.756 15.0625 29.1966V37.8923C15.0625 39.3328 16.2306 40.5009 17.6712 40.5009C19.1118 40.5009 20.2799 39.3328 20.2799 37.8923V29.1966C20.2799 27.756 19.1118 26.5879 17.6712 26.5879Z" fill="black" style="fill:black;fill-opacity:1;"></path>
  <path d="M0.350561 10.4995C-0.371179 11.7459 0.0578068 13.343 1.30419 14.0618L8.83463 18.4097C10.081 19.1314 11.6781 18.7024 12.397 17.456C13.1158 16.2096 12.6897 14.6125 11.4433 13.8937L3.91288 9.54587C2.66651 8.82413 1.0694 9.25312 0.350561 10.4995Z" fill="black" style="fill:black;fill-opacity:1;"></path>
  <path d="M22.9404 17.456C23.6621 18.7024 25.2563 19.1314 26.5027 18.4097L34.0332 14.0618C35.2795 13.3401 35.7085 11.7459 34.9868 10.4995C34.2651 9.25312 32.6708 8.82413 31.4245 9.54587L23.894 13.8937C22.6477 14.6154 22.2187 16.2096 22.9404 17.456Z" fill="black" style="fill:black;fill-opacity:1;"></path>
</svg>