<svg xmlns:xlink="http://www.w3.org/1999/xlink" xmlns="http://www.w3.org/2000/svg" width="131" height="32" viewBox="0 0 131 32" fill="none">
  <path d="M0.339844 0.820312H8.60941L13.9022 16.5334C14.563 18.6 15.5138 21.8261 16.2993 24.2667H16.3398C17.2094 21.8261 18.3659 18.1884 19.0268 16.2464L24.279 0.823211H32.2993V30.3884H27.0906V15.3363C27.0906 12.1942 27.1746 7.56234 27.1746 5.20582H27.134C26.7195 6.73625 25.3138 10.8696 23.992 15.0058L18.8239 30.3884H13.6558L7.45289 11.9044C6.50216 9.0522 6.04709 6.98263 5.4268 5.00002H5.38622C5.4268 7.4406 5.47028 10.7884 5.47028 14.9247V30.3884H0.342741V0.820312H0.339844Z" fill="black" style="fill:black;fill-opacity:1;"></path>
  <path d="M58.0647 19.55C58.0647 26.2891 53.6415 31.0456 46.6097 31.0456C39.5778 31.0456 35.3633 26.1674 35.3633 19.55C35.3633 12.9326 39.8705 7.92969 46.6937 7.92969C53.5169 7.92969 58.0647 12.7268 58.0647 19.55ZM40.5314 19.5094C40.5314 23.9761 42.8068 26.8282 46.6097 26.8282C50.4126 26.8282 52.7285 23.9761 52.7285 19.5094C52.7285 15.0427 50.4126 12.15 46.6097 12.15C42.8068 12.15 40.5314 15.2108 40.5314 19.5094Z" fill="black" style="fill:black;fill-opacity:1;"></path>
  <path d="M66.7437 8.6781H70.7959V12.4404H66.7437V24.3071C66.7437 26.3332 67.6945 26.994 69.3495 26.994C69.764 26.994 70.0945 26.9535 70.3843 26.91V30.6317C69.9292 30.7564 69.393 30.7969 68.4394 30.7969C64.3466 30.7969 61.7003 29.4752 61.7003 25.1737V12.4375H58.4336V8.6752H61.7003V2.80273H66.7437V8.6752V8.6781Z" fill="black" style="fill:black;fill-opacity:1;"></path>
  <path d="M78.1558 6.81741C78.1558 8.42901 78.1152 9.46379 78.0717 11.1189C79.4369 9.29857 81.463 7.97683 84.6456 7.97683C89.6485 7.97683 92.5007 11.4493 92.5007 16.7855V30.3884H87.4978V19.2232C87.4978 14.9218 86.5065 12.1942 83.0746 12.1942C79.6427 12.1942 78.1529 14.7565 78.1529 18.3971V30.3884H73.1094V0.820312H78.1529V6.81741H78.1558Z" fill="black" style="fill:black;fill-opacity:1;"></path>
  <path d="M100.114 20.751C100.444 24.3075 102.844 26.8698 106.357 26.8698C108.838 26.8698 110.369 25.835 111.32 24.1829H116.407C115.085 28.151 111.485 31.0466 106.236 31.0466C99.4529 31.0466 95.0703 26.2495 95.0703 19.4698C95.0703 12.6901 99.537 7.93359 106.151 7.93359C112.766 7.93359 116.778 13.1017 116.778 19.4292C116.778 20.2148 116.737 20.6698 116.737 20.7945L100.114 20.7539V20.751ZM111.731 17.1539C111.401 14.1771 109.375 11.8611 106.108 11.8611C102.841 11.8611 100.734 13.6814 100.279 17.1539H111.734H111.731Z" fill="black" style="fill:black;fill-opacity:1;"></path>
  <path d="M124.052 8.63432V10.1242C124.052 10.6198 124.052 11.1155 124.011 11.5706C124.796 9.37925 126.782 8.13867 129.263 8.13867C129.799 8.13867 130.173 8.17925 130.463 8.22273V13.0198C130.092 12.8952 129.512 12.8546 129.017 12.8546C125.049 12.8546 124.385 15.6662 124.385 20.1329V30.3879H119.341V12.5677C119.341 11.2024 119.341 9.96186 119.301 8.64012H124.057L124.052 8.63432Z" fill="black" style="fill:black;fill-opacity:1;"></path>
</svg>