<svg xmlns:xlink="http://www.w3.org/1999/xlink" xmlns="http://www.w3.org/2000/svg" width="210" height="70" viewBox="0 0 210 70" fill="none">
<path fill-rule="evenodd" clip-rule="evenodd" d="M61.5452 42.0424C61.8904 40.77 62.142 39.4484 62.2949 38.0971V38.102C62.3442 37.6927 62.0137 37.3327 61.5945 37.3327H58.2556C57.9005 37.3327 57.6045 37.599 57.5552 37.9491C57.3727 39.3645 57.0571 40.7306 56.6181 42.0473C55.6613 44.9472 54.1275 47.5856 52.1448 49.8295C51.4987 50.5693 50.7984 51.2695 50.0536 51.9156C47.0698 54.5244 43.3905 56.3541 39.3265 57.079C38.1971 57.2911 37.043 57.4095 35.8593 57.4341C35.4401 57.4489 35.0209 57.444 34.6016 57.4292H34.4981C33.3538 57.3897 32.2293 57.2615 31.1344 57.0495C27.0655 56.2752 23.3863 54.3913 20.4073 51.7282C19.7415 51.1364 19.1102 50.5002 18.5184 49.8295C15.0807 45.9483 12.9649 40.8785 12.8811 35.3501C12.7923 29.5308 14.9229 24.2095 18.4789 20.1804C19.0806 19.4949 19.7267 18.8488 20.4073 18.2422C23.3813 15.5988 27.0606 13.7297 31.1344 12.9653C32.2589 12.7533 33.418 12.6251 34.6016 12.5856C34.8384 12.5807 35.0751 12.5757 35.3168 12.5757C35.4993 12.5757 35.6817 12.5757 35.8593 12.5856C37.043 12.6103 38.1971 12.7286 39.3265 12.9357C43.3855 13.6656 47.0698 15.4903 50.0536 18.0992C50.7984 18.7452 51.4987 19.4406 52.1448 20.1804C53.8907 22.153 55.2914 24.4413 56.2532 26.9417C56.4307 27.3954 56.0904 27.8885 55.6071 27.8885H53.5307C53.2545 27.8885 53.003 27.7159 52.8945 27.4595C50.4778 21.8374 45.4422 17.606 39.3265 16.3041C38.202 16.0624 37.043 15.9194 35.8593 15.8898C35.6817 15.8799 35.4993 15.8799 35.3168 15.8799C35.0751 15.8799 34.8384 15.8849 34.6016 15.8947C33.413 15.9391 32.254 16.0871 31.1344 16.3386C22.2963 18.3113 15.7663 26.3943 16.2052 35.9173C16.6097 44.6069 22.9029 51.8219 31.1344 53.6713C32.2589 53.9277 33.418 54.0806 34.6016 54.125H34.6312C35.0455 54.1398 35.4549 54.1398 35.8593 54.125C37.0479 54.0954 38.2069 53.9524 39.3265 53.7058C45.6247 52.3644 50.7737 47.921 53.1016 42.0473C53.5948 40.8144 53.9598 39.5026 54.1866 38.1563C54.2557 37.7223 53.9253 37.3327 53.4863 37.3327H41.176C40.9146 37.3327 40.6828 37.4856 40.5595 37.7173C39.9677 38.8566 39.0207 39.7788 37.8568 40.3311C37.0874 40.701 36.2243 40.9081 35.3168 40.9081C32.8804 40.9081 30.7892 39.4336 29.8866 37.3327C29.5809 36.6176 29.4132 35.868 29.4132 35.0099C29.4132 34.1518 29.5956 33.3331 29.9212 32.6081C30.8385 30.5418 32.91 29.1017 35.3168 29.1017C36.2243 29.1017 37.0874 29.3089 37.8568 29.6787C39.0059 30.2212 39.9479 31.1286 40.5398 32.2481C40.6532 32.4701 40.8899 32.6081 41.1415 32.6081H44.7616C45.2351 32.6081 45.5655 32.1347 45.4126 31.6909C44.9441 30.2656 44.1845 28.9735 43.2031 27.8885C41.2598 25.7334 38.4437 24.3821 35.3168 24.3821C30.2713 24.3821 26.0495 27.8984 24.9596 32.6081C24.782 33.3775 24.6883 34.2159 24.6883 35.0099C24.6883 35.8039 24.7771 36.5831 24.9448 37.3327C26.0051 42.0819 30.2467 45.6277 35.3168 45.6277C38.4831 45.6277 41.324 44.2469 43.2721 42.0473H46.7837C47.1487 42.0473 47.3706 42.4567 47.1733 42.7624C44.4953 46.8508 39.7753 49.4646 34.4685 49.1489C27.2431 48.7347 21.4381 42.792 21.157 35.5671C20.8463 27.4891 27.3023 20.8412 35.3168 20.8412C40.5447 20.8412 45.1118 23.672 47.563 27.8885C48.3077 29.1609 48.8551 30.5615 49.1757 32.0459C49.2497 32.3714 49.5259 32.6081 49.8563 32.6081H61.5847C62.0137 32.6081 62.3343 32.258 62.2899 31.8289C62.137 30.4777 61.8806 29.1609 61.5255 27.8885C60.3023 23.3711 57.9448 19.3222 54.7785 16.0674C53.3581 14.6076 51.77 13.3056 50.0536 12.196C46.9711 10.1937 43.4497 8.80302 39.6717 8.19642C38.35 7.97943 36.9887 7.86107 35.6078 7.84627H35.3168H34.8532C33.4722 7.866 32.1208 7.99422 30.7991 8.21615C27.0113 8.8474 23.4898 10.2677 20.4073 12.2946C18.686 13.4289 17.0979 14.7506 15.6825 16.235C10.8836 21.2555 7.98852 28.1154 8.16607 35.651C8.32883 42.6391 11.1697 48.9763 15.6825 53.7009C17.1029 55.1902 18.691 56.5168 20.4073 57.6561C23.5046 59.7027 27.031 61.1329 30.804 61.7691C32.1258 62.0008 33.4771 62.1241 34.8532 62.1488H35.6078H35.9136C37.1909 62.1192 38.4437 62.0058 39.6717 61.8036C43.4497 61.2019 46.9662 59.8112 50.0536 57.8139C51.7749 56.7042 53.3581 55.4023 54.7785 53.9376C57.9646 50.663 60.3319 46.5894 61.5452 42.0424ZM60.1445 0C62.1173 0 63.952 0.567141 65.5056 1.54361C68.3415 3.32394 70.2305 6.48513 70.2305 10.0852V59.9147C70.2305 63.5149 68.3415 66.6761 65.5056 68.4564C63.952 69.4329 62.1173 70 60.1445 70H10.3214C8.34855 70 6.50892 69.4329 4.95533 68.4564C2.11943 66.6711 0.230469 63.5149 0.230469 59.9147V10.0852C0.230469 6.48513 2.11943 3.32887 4.95533 1.54361C6.50892 0.567141 8.34855 0 10.3214 0H60.1445ZM178.939 46.9612H174.296V22H178.939V46.9612ZM111.838 39.9122H106.972C106.075 41.9508 104.04 43.3711 101.665 43.3711C98.4663 43.3711 95.8734 40.7865 95.8734 37.5982C95.8734 34.4098 98.4663 31.8253 101.665 31.8253C104.04 31.8253 106.075 33.2455 106.972 35.2842H111.838C110.786 30.6514 106.628 27.1973 101.665 27.1973C99.5229 27.1973 97.531 27.8398 95.8734 28.946C93.0722 30.8108 91.2305 33.9895 91.2305 37.5982C91.2305 41.2068 93.0722 44.3856 95.8734 46.2503C97.531 47.3566 99.5229 47.9991 101.665 47.9991C106.628 47.9991 110.786 44.545 111.838 39.9122ZM133.746 46.9604V37.0764C133.746 33.5499 131.895 30.4533 129.103 28.7093C128.735 28.4775 128.347 28.2649 127.95 28.0861C126.695 27.5161 125.304 27.1973 123.84 27.1973C118.368 27.1973 113.924 31.6224 113.924 37.0764C113.924 39.0088 114.481 40.8107 115.441 42.3324C117.195 45.1102 120.297 46.9604 123.84 46.9604H127.712V42.3324H123.84C120.932 42.3324 118.567 39.975 118.567 37.0764C118.567 34.1779 120.932 31.8253 123.84 31.8253C125.507 31.8253 126.99 32.5934 127.95 33.7914C128.667 34.6948 129.103 35.8349 129.103 37.0764V46.9604H133.746ZM204.589 28.7093C203.063 27.7528 201.26 27.1973 199.321 27.1973C197.383 27.1973 195.575 27.7528 194.048 28.7093C191.261 30.4581 189.405 33.5499 189.405 37.0764V46.9604H194.048V37.0764C194.048 34.1779 196.408 31.8253 199.321 31.8253C202.234 31.8253 204.589 34.1779 204.589 37.0764V46.9604H209.232V37.0764C209.232 33.5499 207.376 30.4533 204.589 28.7093ZM161.48 27.1973C163.418 27.1973 165.221 27.7528 166.748 28.7093C169.535 30.4533 171.391 33.5499 171.391 37.0764V46.9604H166.748V37.0764C166.748 34.1779 164.393 31.8253 161.48 31.8253C158.567 31.8253 156.207 34.1779 156.207 37.0764V46.9604H151.564V37.0764C151.564 34.1779 149.208 31.8253 146.296 31.8253C143.383 31.8253 141.023 34.1779 141.023 37.0764V46.9604H136.38V37.0764C136.38 33.5499 138.236 30.4581 141.023 28.7093C142.549 27.7528 144.357 27.1973 146.296 27.1973C148.234 27.1973 150.037 27.7528 151.564 28.7093C152.436 29.2552 153.221 29.9364 153.885 30.7238C154.549 29.9412 155.33 29.2601 156.207 28.7093C157.734 27.7528 159.541 27.1973 161.48 27.1973ZM181.852 46.9619V28.2422H186.495V46.9619H181.852ZM181.852 24.314C181.852 25.5942 182.89 26.628 184.174 26.628C185.458 26.628 186.495 25.5942 186.495 24.314C186.495 23.0338 185.458 22 184.174 22C182.89 22 181.852 23.0338 181.852 24.314Z" fill="black" style="fill:black;fill-opacity:1;"/>
</svg>